<svg id="svg" version="1.1" xmlns="http://www.w3.org/2000/svg" xmlns:xlink="http://www.w3.org/1999/xlink" width="400" height="400" viewBox="0, 0, 400,400"><g id="svgg"><path id="path0" d="M202.843 62.153 C 200.531 63.042,204.348 59.751,149.653 108.008 L 112.462 140.820 70.782 141.016 L 29.102 141.211 26.824 142.130 C 23.778 143.358,20.702 146.435,19.473 149.480 L 18.555 151.758 18.555 205.469 L 18.555 259.180 19.566 261.328 C 21.416 265.254,24.233 267.753,28.109 268.904 C 29.988 269.462,34.721 269.531,71.174 269.531 L 112.128 269.531 155.771 308.055 C 179.775 329.244,200.077 347.002,200.887 347.519 C 207.514 351.744,217.061 348.800,220.438 341.491 L 221.289 339.648 221.289 205.273 L 221.289 70.898 220.328 68.945 C 217.194 62.579,209.505 59.592,202.843 62.153 M258.645 125.403 C 249.964 127.202,245.328 136.690,249.211 144.711 C 249.637 145.590,259.943 158.257,272.114 172.861 C 284.285 187.465,294.854 200.157,295.600 201.066 L 296.956 202.718 273.595 230.748 C 248.787 260.512,248.733 260.583,248.057 264.363 C 246.240 274.525,256.397 282.937,266.099 279.305 C 269.451 278.050,270.266 277.158,292.891 250.014 C 304.806 235.719,314.597 224.023,314.648 224.023 C 314.700 224.023,324.491 235.719,336.406 250.014 C 348.321 264.309,358.759 276.573,359.601 277.268 C 368.176 284.341,381.445 277.850,381.409 266.602 C 381.392 261.406,381.884 262.094,355.887 230.895 L 332.376 202.682 334.522 200.071 C 335.702 198.636,346.346 185.859,358.176 171.680 C 381.947 143.185,381.378 143.996,381.378 138.672 C 381.378 128.551,370.995 122.086,361.940 126.567 C 359.287 127.880,358.624 128.628,336.370 155.371 C 324.526 169.604,314.764 181.250,314.677 181.250 C 314.590 181.250,304.586 169.341,292.447 154.785 C 269.947 127.806,269.131 126.925,265.625 125.842 C 263.540 125.198,260.542 125.009,258.645 125.403 " stroke="none" fill="#000000" fill-rule="evenodd"></path></g></svg>