<svg id="svg" version="1.1" xmlns="http://www.w3.org/2000/svg" xmlns:xlink="http://www.w3.org/1999/xlink" width="400" height="400" viewBox="0, 0, 400,400"><g id="svgg"><path id="path0" d="M203.300 61.606 C 201.815 62.537,180.860 80.376,156.735 101.249 L 112.870 139.200 70.153 139.200 L 27.437 139.200 24.792 141.000 C 18.332 145.396,18.827 140.500,18.584 202.503 C 18.343 264.025,18.094 261.054,23.849 265.445 L 26.674 267.600 69.537 268.000 L 112.400 268.400 157.496 307.456 C 182.299 328.937,203.472 346.847,204.548 347.256 C 210.998 349.709,218.654 347.220,221.957 341.597 C 224.334 337.551,224.581 70.993,222.212 66.663 C 218.874 60.562,209.125 57.954,203.300 61.606 M322.376 62.600 C 313.412 67.128,312.528 76.533,320.127 86.511 C 373.452 156.524,373.601 251.864,320.495 321.579 C 310.626 334.534,314.794 347.207,328.921 347.197 C 334.803 347.193,337.119 345.555,343.787 336.683 C 400.252 261.558,402.554 158.342,349.512 80.000 C 336.725 61.114,331.698 57.891,322.376 62.600 M286.318 97.806 C 278.378 103.083,278.252 110.867,285.921 122.292 C 319.612 172.482,319.724 234.413,286.218 285.821 C 277.993 298.441,278.148 305.772,286.747 310.811 C 295.261 315.801,301.443 313.019,309.748 300.460 C 344.097 248.512,348.145 182.607,320.415 126.800 C 306.549 98.895,296.956 90.737,286.318 97.806 M249.744 134.900 C 242.841 138.419,240.361 147.445,244.386 154.400 C 263.297 187.082,264.092 220.342,246.670 250.000 C 242.062 257.844,241.301 262.709,243.888 267.780 C 248.842 277.492,262.143 277.443,268.374 267.690 C 291.570 231.384,292.531 181.599,270.744 144.849 C 264.568 134.429,257.363 131.017,249.744 134.900 " stroke="none" fill="#000000" fill-rule="evenodd"></path></g></svg>