<svg id="svg" xmlns="http://www.w3.org/2000/svg" xmlns:xlink="http://www.w3.org/1999/xlink" width="400" height="104.52261306532662" viewBox="0, 0, 400,104.52261306532662" version="1.1"><g id="svgg"><path id="path0" d="M0.000 3.500 L 0.000 7.000 0.583 7.000 L 1.167 7.000 1.167 8.000 L 1.167 9.000 3.167 9.000 L 5.167 9.000 5.167 10.000 L 5.167 11.000 8.167 11.000 L 11.167 11.000 11.167 12.000 L 11.167 13.000 14.167 13.000 L 17.167 13.000 17.167 14.000 L 17.167 15.000 19.167 15.000 L 21.167 15.000 21.167 16.000 L 21.167 17.000 24.250 17.000 L 27.333 17.000 27.333 18.083 L 27.333 19.167 30.325 19.167 L 33.317 19.167 33.367 20.125 L 33.417 21.083 35.367 21.130 L 37.317 21.177 37.367 22.130 L 37.417 23.083 40.367 23.129 L 43.317 23.174 43.367 24.129 L 43.417 25.083 46.367 25.129 L 49.317 25.174 49.367 26.129 L 49.417 27.083 51.367 27.130 L 53.317 27.177 53.367 28.130 L 53.417 29.083 56.458 29.129 L 59.500 29.174 59.500 30.170 L 59.500 31.167 62.500 31.167 L 65.500 31.167 65.500 32.167 L 65.500 33.167 67.492 33.167 L 69.483 33.167 69.533 34.125 L 69.583 35.083 72.533 35.129 L 75.484 35.174 75.533 36.129 L 75.583 37.083 78.533 37.129 L 81.484 37.174 81.533 38.129 L 81.583 39.083 83.534 39.130 L 85.484 39.177 85.534 40.130 L 85.583 41.083 88.533 41.129 L 91.484 41.174 91.533 42.129 L 91.583 43.083 94.625 43.129 L 97.667 43.174 97.667 44.170 L 97.667 45.167 99.667 45.167 L 101.667 45.167 101.667 46.167 L 101.667 47.167 104.667 47.167 L 107.667 47.167 107.667 48.167 L 107.667 49.167 110.667 49.167 L 113.667 49.167 113.667 50.167 L 113.667 51.167 115.659 51.167 L 117.651 51.167 117.700 52.208 L 117.750 53.250 120.700 53.295 L 123.650 53.341 123.700 54.295 L 123.750 55.250 126.792 55.295 L 129.833 55.341 129.833 56.337 L 129.833 57.333 131.825 57.333 L 133.817 57.333 133.867 58.292 L 133.917 59.250 136.867 59.295 L 139.817 59.341 139.867 60.295 L 139.917 61.250 142.867 61.295 L 145.817 61.341 145.867 62.295 L 145.917 63.250 147.867 63.297 L 149.817 63.344 149.867 64.297 L 149.917 65.250 152.867 65.295 L 155.817 65.341 155.867 66.295 L 155.917 67.250 158.958 67.295 L 162.000 67.341 162.000 68.337 L 162.000 69.333 164.000 69.333 L 166.000 69.333 166.000 70.333 L 166.000 71.333 168.992 71.333 L 171.983 71.333 172.033 72.292 L 172.083 73.250 175.033 73.295 L 177.984 73.341 178.033 74.295 L 178.083 75.250 180.034 75.297 L 181.984 75.344 182.034 76.297 L 182.083 77.250 185.042 77.296 L 188.000 77.341 188.000 78.337 L 188.000 79.333 191.083 79.333 L 194.167 79.333 194.167 80.333 L 194.167 81.333 196.167 81.333 L 198.167 81.333 198.167 82.333 L 198.167 83.333 201.167 83.333 L 204.167 83.333 204.167 84.333 L 204.167 85.333 207.159 85.333 L 210.151 85.333 210.200 86.375 L 210.250 87.417 212.200 87.464 L 214.150 87.510 214.200 88.464 L 214.250 89.417 217.200 89.462 L 220.150 89.508 220.200 90.462 L 220.250 91.417 223.292 91.462 L 226.333 91.508 226.333 92.504 L 226.333 93.500 228.333 93.500 L 230.333 93.500 230.333 94.500 L 230.333 95.500 233.325 95.500 L 236.317 95.500 236.367 96.458 L 236.417 97.417 239.367 97.462 L 242.317 97.508 242.367 98.462 L 242.417 99.417 244.367 99.464 L 246.317 99.510 246.367 100.464 L 246.417 101.417 249.367 101.462 L 252.317 101.508 252.367 102.462 L 252.417 103.417 255.458 103.462 L 258.500 103.508 258.500 104.004 L 258.500 104.500 264.417 104.500 L 270.333 104.500 270.333 104.008 C 270.333 103.527,270.353 103.516,271.292 103.467 L 272.250 103.417 272.250 99.500 L 272.250 95.583 271.300 95.534 L 270.349 95.484 270.300 94.534 L 270.250 93.583 269.300 93.534 L 268.349 93.484 268.300 92.534 L 268.250 91.583 266.300 91.536 L 264.350 91.490 264.300 90.536 L 264.250 89.583 263.300 89.534 L 262.349 89.484 262.300 88.534 L 262.250 87.583 261.300 87.534 L 260.349 87.484 260.300 86.534 L 260.250 85.583 258.300 85.536 L 256.350 85.490 256.300 84.536 L 256.250 83.583 255.300 83.534 L 254.349 83.484 254.300 82.534 L 254.250 81.583 253.300 81.534 L 252.349 81.484 252.300 80.534 L 252.250 79.583 250.208 79.537 L 248.167 79.490 248.167 78.495 L 248.167 77.500 247.167 77.500 L 246.167 77.500 246.167 76.500 L 246.167 75.500 244.167 75.500 L 242.167 75.500 242.167 74.500 L 242.167 73.500 241.175 73.500 L 240.183 73.500 240.133 72.542 L 240.083 71.583 239.125 71.533 L 238.167 71.483 238.167 70.492 L 238.167 69.500 236.167 69.500 L 234.167 69.500 234.167 68.500 L 234.167 67.500 233.167 67.500 L 232.167 67.500 232.167 66.500 L 232.167 65.500 231.167 65.500 L 230.167 65.500 230.167 64.500 L 230.167 63.500 228.167 63.500 L 226.167 63.500 226.167 62.500 L 226.167 61.500 225.175 61.500 L 224.183 61.500 224.133 60.458 L 224.083 59.417 223.133 59.367 L 222.183 59.317 222.133 58.367 L 222.083 57.417 220.133 57.370 L 218.183 57.323 218.133 56.370 L 218.083 55.417 217.042 55.367 L 216.000 55.317 216.000 54.325 L 216.000 53.333 215.000 53.333 L 214.000 53.333 214.000 52.333 L 214.000 51.333 212.000 51.333 L 210.000 51.333 210.000 50.333 L 210.000 49.333 209.008 49.333 L 208.017 49.333 207.967 48.375 L 207.917 47.417 206.966 47.367 L 206.016 47.317 205.966 46.367 L 205.917 45.417 203.966 45.370 L 202.016 45.323 201.966 44.370 L 201.917 43.417 200.966 43.367 L 200.016 43.317 199.966 42.367 L 199.917 41.417 197.966 41.370 L 196.016 41.323 195.966 40.370 L 195.917 39.417 194.966 39.367 L 194.016 39.317 193.966 38.367 L 193.917 37.417 192.917 37.320 C 192.367 37.266,238.735 37.210,295.958 37.195 L 400.000 37.167 400.000 18.583 L 400.000 0.000 200.000 0.000 L 0.000 0.000 0.000 3.500 " stroke="none" fill="#b8a939" fill-rule="evenodd"></path><path id="path1" d="M0.000 3.500 L 0.000 7.000 0.583 7.000 L 1.167 7.000 1.167 8.000 L 1.167 9.000 3.167 9.000 L 5.167 9.000 5.167 10.000 L 5.167 11.000 8.167 11.000 L 11.167 11.000 11.167 12.000 L 11.167 13.000 14.167 13.000 L 17.167 13.000 17.167 14.000 L 17.167 15.000 19.167 15.000 L 21.167 15.000 21.167 16.000 L 21.167 17.000 24.250 17.000 L 27.333 17.000 27.333 18.083 L 27.333 19.167 30.325 19.167 L 33.317 19.167 33.367 20.125 L 33.417 21.083 35.367 21.130 L 37.317 21.177 37.367 22.130 L 37.417 23.083 40.367 23.129 L 43.317 23.174 43.367 24.129 L 43.417 25.083 46.367 25.129 L 49.317 25.174 49.367 26.129 L 49.417 27.083 51.367 27.130 L 53.317 27.177 53.367 28.130 L 53.417 29.083 56.458 29.129 L 59.500 29.174 59.500 30.170 L 59.500 31.167 62.500 31.167 L 65.500 31.167 65.500 32.167 L 65.500 33.167 67.492 33.167 L 69.483 33.167 69.533 34.125 L 69.583 35.083 72.533 35.129 L 75.484 35.174 75.533 36.129 L 75.583 37.083 78.533 37.129 L 81.484 37.174 81.533 38.129 L 81.583 39.083 83.534 39.130 L 85.484 39.177 85.534 40.130 L 85.583 41.083 88.533 41.129 L 91.484 41.174 91.533 42.129 L 91.583 43.083 94.625 43.129 L 97.667 43.174 97.667 44.170 L 97.667 45.167 99.667 45.167 L 101.667 45.167 101.667 46.167 L 101.667 47.167 104.667 47.167 L 107.667 47.167 107.667 48.167 L 107.667 49.167 110.667 49.167 L 113.667 49.167 113.667 50.167 L 113.667 51.167 115.659 51.167 L 117.651 51.167 117.700 52.208 L 117.750 53.250 120.700 53.295 L 123.650 53.341 123.700 54.295 L 123.750 55.250 126.792 55.295 L 129.833 55.341 129.833 56.337 L 129.833 57.333 131.825 57.333 L 133.817 57.333 133.867 58.292 L 133.917 59.250 136.867 59.295 L 139.817 59.341 139.867 60.295 L 139.917 61.250 142.867 61.295 L 145.817 61.341 145.867 62.295 L 145.917 63.250 147.867 63.297 L 149.817 63.344 149.867 64.297 L 149.917 65.250 152.867 65.295 L 155.817 65.341 155.867 66.295 L 155.917 67.250 158.958 67.295 L 162.000 67.341 162.000 68.337 L 162.000 69.333 164.000 69.333 L 166.000 69.333 166.000 70.333 L 166.000 71.333 168.992 71.333 L 171.983 71.333 172.033 72.292 L 172.083 73.250 175.033 73.295 L 177.984 73.341 178.033 74.295 L 178.083 75.250 180.034 75.297 L 181.984 75.344 182.034 76.297 L 182.083 77.250 185.042 77.296 L 188.000 77.341 188.000 78.337 L 188.000 79.333 191.083 79.333 L 194.167 79.333 194.167 80.333 L 194.167 81.333 196.167 81.333 L 198.167 81.333 198.167 82.333 L 198.167 83.333 201.167 83.333 L 204.167 83.333 204.167 84.333 L 204.167 85.333 207.159 85.333 L 210.151 85.333 210.200 86.375 L 210.250 87.417 212.200 87.464 L 214.150 87.510 214.200 88.464 L 214.250 89.417 217.200 89.462 L 220.150 89.508 220.200 90.462 L 220.250 91.417 223.292 91.462 L 226.333 91.508 226.333 92.504 L 226.333 93.500 228.333 93.500 L 230.333 93.500 230.333 94.500 L 230.333 95.500 233.325 95.500 L 236.317 95.500 236.367 96.458 L 236.417 97.417 239.367 97.462 L 242.317 97.508 242.367 98.462 L 242.417 99.417 244.367 99.464 L 246.317 99.510 246.367 100.464 L 246.417 101.417 249.367 101.462 L 252.317 101.508 252.367 102.462 L 252.417 103.417 255.458 103.462 L 258.500 103.508 258.500 104.004 L 258.500 104.500 264.417 104.500 L 270.333 104.500 270.333 104.008 C 270.333 103.527,270.353 103.516,271.292 103.467 L 272.250 103.417 272.250 99.500 L 272.250 95.583 271.300 95.534 L 270.349 95.484 270.300 94.534 L 270.250 93.583 269.300 93.534 L 268.349 93.484 268.300 92.534 L 268.250 91.583 266.300 91.536 L 264.350 91.490 264.300 90.536 L 264.250 89.583 263.300 89.534 L 262.349 89.484 262.300 88.534 L 262.250 87.583 261.300 87.534 L 260.349 87.484 260.300 86.534 L 260.250 85.583 258.300 85.536 L 256.350 85.490 256.300 84.536 L 256.250 83.583 255.300 83.534 L 254.349 83.484 254.300 82.534 L 254.250 81.583 253.300 81.534 L 252.349 81.484 252.300 80.534 L 252.250 79.583 250.208 79.537 L 248.167 79.490 248.167 78.495 L 248.167 77.500 247.167 77.500 L 246.167 77.500 246.167 76.500 L 246.167 75.500 244.167 75.500 L 242.167 75.500 242.167 74.500 L 242.167 73.500 241.175 73.500 L 240.183 73.500 240.133 72.542 L 240.083 71.583 239.125 71.533 L 238.167 71.483 238.167 70.492 L 238.167 69.500 236.167 69.500 L 234.167 69.500 234.167 68.500 L 234.167 67.500 233.167 67.500 L 232.167 67.500 232.167 66.500 L 232.167 65.500 231.167 65.500 L 230.167 65.500 230.167 64.500 L 230.167 63.500 228.167 63.500 L 226.167 63.500 226.167 62.500 L 226.167 61.500 225.175 61.500 L 224.183 61.500 224.133 60.458 L 224.083 59.417 223.133 59.367 L 222.183 59.317 222.133 58.367 L 222.083 57.417 220.133 57.370 L 218.183 57.323 218.133 56.370 L 218.083 55.417 217.042 55.367 L 216.000 55.317 216.000 54.325 L 216.000 53.333 215.000 53.333 L 214.000 53.333 214.000 52.333 L 214.000 51.333 212.000 51.333 L 210.000 51.333 210.000 50.333 L 210.000 49.333 209.008 49.333 L 208.017 49.333 207.967 48.375 L 207.917 47.417 206.966 47.367 L 206.016 47.317 205.966 46.367 L 205.917 45.417 203.966 45.370 L 202.016 45.323 201.966 44.370 L 201.917 43.417 200.966 43.367 L 200.016 43.317 199.966 42.367 L 199.917 41.417 197.966 41.370 L 196.016 41.323 195.966 40.370 L 195.917 39.417 194.966 39.367 L 194.016 39.317 193.966 38.367 L 193.917 37.417 192.917 37.320 C 192.367 37.266,238.735 37.210,295.958 37.195 L 400.000 37.167 400.000 18.583 L 400.000 0.000 200.000 0.000 L 0.000 0.000 0.000 3.500 " stroke="none" fill="#b8a939" fill-rule="evenodd"></path><path id="path2" d="M0.000 3.500 L 0.000 7.000 0.583 7.000 L 1.167 7.000 1.167 8.000 L 1.167 9.000 3.167 9.000 L 5.167 9.000 5.167 10.000 L 5.167 11.000 8.167 11.000 L 11.167 11.000 11.167 12.000 L 11.167 13.000 14.167 13.000 L 17.167 13.000 17.167 14.000 L 17.167 15.000 19.167 15.000 L 21.167 15.000 21.167 16.000 L 21.167 17.000 24.250 17.000 L 27.333 17.000 27.333 18.083 L 27.333 19.167 30.325 19.167 L 33.317 19.167 33.367 20.125 L 33.417 21.083 35.367 21.130 L 37.317 21.177 37.367 22.130 L 37.417 23.083 40.367 23.129 L 43.317 23.174 43.367 24.129 L 43.417 25.083 46.367 25.129 L 49.317 25.174 49.367 26.129 L 49.417 27.083 51.367 27.130 L 53.317 27.177 53.367 28.130 L 53.417 29.083 56.458 29.129 L 59.500 29.174 59.500 30.170 L 59.500 31.167 62.500 31.167 L 65.500 31.167 65.500 32.167 L 65.500 33.167 67.492 33.167 L 69.483 33.167 69.533 34.125 L 69.583 35.083 72.533 35.129 L 75.484 35.174 75.533 36.129 L 75.583 37.083 78.533 37.129 L 81.484 37.174 81.533 38.129 L 81.583 39.083 83.534 39.130 L 85.484 39.177 85.534 40.130 L 85.583 41.083 88.533 41.129 L 91.484 41.174 91.533 42.129 L 91.583 43.083 94.625 43.129 L 97.667 43.174 97.667 44.170 L 97.667 45.167 99.667 45.167 L 101.667 45.167 101.667 46.167 L 101.667 47.167 104.667 47.167 L 107.667 47.167 107.667 48.167 L 107.667 49.167 110.667 49.167 L 113.667 49.167 113.667 50.167 L 113.667 51.167 115.659 51.167 L 117.651 51.167 117.700 52.208 L 117.750 53.250 120.700 53.295 L 123.650 53.341 123.700 54.295 L 123.750 55.250 126.792 55.295 L 129.833 55.341 129.833 56.337 L 129.833 57.333 131.825 57.333 L 133.817 57.333 133.867 58.292 L 133.917 59.250 136.867 59.295 L 139.817 59.341 139.867 60.295 L 139.917 61.250 142.867 61.295 L 145.817 61.341 145.867 62.295 L 145.917 63.250 147.867 63.297 L 149.817 63.344 149.867 64.297 L 149.917 65.250 152.867 65.295 L 155.817 65.341 155.867 66.295 L 155.917 67.250 158.958 67.295 L 162.000 67.341 162.000 68.337 L 162.000 69.333 164.000 69.333 L 166.000 69.333 166.000 70.333 L 166.000 71.333 168.992 71.333 L 171.983 71.333 172.033 72.292 L 172.083 73.250 175.033 73.295 L 177.984 73.341 178.033 74.295 L 178.083 75.250 180.034 75.297 L 181.984 75.344 182.034 76.297 L 182.083 77.250 185.042 77.296 L 188.000 77.341 188.000 78.337 L 188.000 79.333 191.083 79.333 L 194.167 79.333 194.167 80.333 L 194.167 81.333 196.167 81.333 L 198.167 81.333 198.167 82.333 L 198.167 83.333 201.167 83.333 L 204.167 83.333 204.167 84.333 L 204.167 85.333 207.159 85.333 L 210.151 85.333 210.200 86.375 L 210.250 87.417 212.200 87.464 L 214.150 87.510 214.200 88.464 L 214.250 89.417 217.200 89.462 L 220.150 89.508 220.200 90.462 L 220.250 91.417 223.292 91.462 L 226.333 91.508 226.333 92.504 L 226.333 93.500 228.333 93.500 L 230.333 93.500 230.333 94.500 L 230.333 95.500 233.325 95.500 L 236.317 95.500 236.367 96.458 L 236.417 97.417 239.367 97.462 L 242.317 97.508 242.367 98.462 L 242.417 99.417 244.367 99.464 L 246.317 99.510 246.367 100.464 L 246.417 101.417 249.367 101.462 L 252.317 101.508 252.367 102.462 L 252.417 103.417 255.458 103.462 L 258.500 103.508 258.500 104.004 L 258.500 104.500 264.417 104.500 L 270.333 104.500 270.333 104.008 C 270.333 103.527,270.353 103.516,271.292 103.467 L 272.250 103.417 272.250 99.500 L 272.250 95.583 271.300 95.534 L 270.349 95.484 270.300 94.534 L 270.250 93.583 269.300 93.534 L 268.349 93.484 268.300 92.534 L 268.250 91.583 266.300 91.536 L 264.350 91.490 264.300 90.536 L 264.250 89.583 263.300 89.534 L 262.349 89.484 262.300 88.534 L 262.250 87.583 261.300 87.534 L 260.349 87.484 260.300 86.534 L 260.250 85.583 258.300 85.536 L 256.350 85.490 256.300 84.536 L 256.250 83.583 255.300 83.534 L 254.349 83.484 254.300 82.534 L 254.250 81.583 253.300 81.534 L 252.349 81.484 252.300 80.534 L 252.250 79.583 250.208 79.537 L 248.167 79.490 248.167 78.495 L 248.167 77.500 247.167 77.500 L 246.167 77.500 246.167 76.500 L 246.167 75.500 244.167 75.500 L 242.167 75.500 242.167 74.500 L 242.167 73.500 241.175 73.500 L 240.183 73.500 240.133 72.542 L 240.083 71.583 239.125 71.533 L 238.167 71.483 238.167 70.492 L 238.167 69.500 236.167 69.500 L 234.167 69.500 234.167 68.500 L 234.167 67.500 233.167 67.500 L 232.167 67.500 232.167 66.500 L 232.167 65.500 231.167 65.500 L 230.167 65.500 230.167 64.500 L 230.167 63.500 228.167 63.500 L 226.167 63.500 226.167 62.500 L 226.167 61.500 225.175 61.500 L 224.183 61.500 224.133 60.458 L 224.083 59.417 223.133 59.367 L 222.183 59.317 222.133 58.367 L 222.083 57.417 220.133 57.370 L 218.183 57.323 218.133 56.370 L 218.083 55.417 217.042 55.367 L 216.000 55.317 216.000 54.325 L 216.000 53.333 215.000 53.333 L 214.000 53.333 214.000 52.333 L 214.000 51.333 212.000 51.333 L 210.000 51.333 210.000 50.333 L 210.000 49.333 209.008 49.333 L 208.017 49.333 207.967 48.375 L 207.917 47.417 206.966 47.367 L 206.016 47.317 205.966 46.367 L 205.917 45.417 203.966 45.370 L 202.016 45.323 201.966 44.370 L 201.917 43.417 200.966 43.367 L 200.016 43.317 199.966 42.367 L 199.917 41.417 197.966 41.370 L 196.016 41.323 195.966 40.370 L 195.917 39.417 194.966 39.367 L 194.016 39.317 193.966 38.367 L 193.917 37.417 192.917 37.320 C 192.367 37.266,238.735 37.210,295.958 37.195 L 400.000 37.167 400.000 18.583 L 400.000 0.000 200.000 0.000 L 0.000 0.000 0.000 3.500 " stroke="none" fill="#b8a939" fill-rule="evenodd"></path><path id="path3" d="M0.000 3.500 L 0.000 7.000 0.583 7.000 L 1.167 7.000 1.167 8.000 L 1.167 9.000 3.167 9.000 L 5.167 9.000 5.167 10.000 L 5.167 11.000 8.167 11.000 L 11.167 11.000 11.167 12.000 L 11.167 13.000 14.167 13.000 L 17.167 13.000 17.167 14.000 L 17.167 15.000 19.167 15.000 L 21.167 15.000 21.167 16.000 L 21.167 17.000 24.250 17.000 L 27.333 17.000 27.333 18.083 L 27.333 19.167 30.325 19.167 L 33.317 19.167 33.367 20.125 L 33.417 21.083 35.367 21.130 L 37.317 21.177 37.367 22.130 L 37.417 23.083 40.367 23.129 L 43.317 23.174 43.367 24.129 L 43.417 25.083 46.367 25.129 L 49.317 25.174 49.367 26.129 L 49.417 27.083 51.367 27.130 L 53.317 27.177 53.367 28.130 L 53.417 29.083 56.458 29.129 L 59.500 29.174 59.500 30.170 L 59.500 31.167 62.500 31.167 L 65.500 31.167 65.500 32.167 L 65.500 33.167 67.492 33.167 L 69.483 33.167 69.533 34.125 L 69.583 35.083 72.533 35.129 L 75.484 35.174 75.533 36.129 L 75.583 37.083 78.533 37.129 L 81.484 37.174 81.533 38.129 L 81.583 39.083 83.534 39.130 L 85.484 39.177 85.534 40.130 L 85.583 41.083 88.533 41.129 L 91.484 41.174 91.533 42.129 L 91.583 43.083 94.625 43.129 L 97.667 43.174 97.667 44.170 L 97.667 45.167 99.667 45.167 L 101.667 45.167 101.667 46.167 L 101.667 47.167 104.667 47.167 L 107.667 47.167 107.667 48.167 L 107.667 49.167 110.667 49.167 L 113.667 49.167 113.667 50.167 L 113.667 51.167 115.659 51.167 L 117.651 51.167 117.700 52.208 L 117.750 53.250 120.700 53.295 L 123.650 53.341 123.700 54.295 L 123.750 55.250 126.792 55.295 L 129.833 55.341 129.833 56.337 L 129.833 57.333 131.825 57.333 L 133.817 57.333 133.867 58.292 L 133.917 59.250 136.867 59.295 L 139.817 59.341 139.867 60.295 L 139.917 61.250 142.867 61.295 L 145.817 61.341 145.867 62.295 L 145.917 63.250 147.867 63.297 L 149.817 63.344 149.867 64.297 L 149.917 65.250 152.867 65.295 L 155.817 65.341 155.867 66.295 L 155.917 67.250 158.958 67.295 L 162.000 67.341 162.000 68.337 L 162.000 69.333 164.000 69.333 L 166.000 69.333 166.000 70.333 L 166.000 71.333 168.992 71.333 L 171.983 71.333 172.033 72.292 L 172.083 73.250 175.033 73.295 L 177.984 73.341 178.033 74.295 L 178.083 75.250 180.034 75.297 L 181.984 75.344 182.034 76.297 L 182.083 77.250 185.042 77.296 L 188.000 77.341 188.000 78.337 L 188.000 79.333 191.083 79.333 L 194.167 79.333 194.167 80.333 L 194.167 81.333 196.167 81.333 L 198.167 81.333 198.167 82.333 L 198.167 83.333 201.167 83.333 L 204.167 83.333 204.167 84.333 L 204.167 85.333 207.159 85.333 L 210.151 85.333 210.200 86.375 L 210.250 87.417 212.200 87.464 L 214.150 87.510 214.200 88.464 L 214.250 89.417 217.200 89.462 L 220.150 89.508 220.200 90.462 L 220.250 91.417 223.292 91.462 L 226.333 91.508 226.333 92.504 L 226.333 93.500 228.333 93.500 L 230.333 93.500 230.333 94.500 L 230.333 95.500 233.325 95.500 L 236.317 95.500 236.367 96.458 L 236.417 97.417 239.367 97.462 L 242.317 97.508 242.367 98.462 L 242.417 99.417 244.367 99.464 L 246.317 99.510 246.367 100.464 L 246.417 101.417 249.367 101.462 L 252.317 101.508 252.367 102.462 L 252.417 103.417 255.458 103.462 L 258.500 103.508 258.500 104.004 L 258.500 104.500 264.417 104.500 L 270.333 104.500 270.333 104.008 C 270.333 103.527,270.353 103.516,271.292 103.467 L 272.250 103.417 272.250 99.500 L 272.250 95.583 271.300 95.534 L 270.349 95.484 270.300 94.534 L 270.250 93.583 269.300 93.534 L 268.349 93.484 268.300 92.534 L 268.250 91.583 266.300 91.536 L 264.350 91.490 264.300 90.536 L 264.250 89.583 263.300 89.534 L 262.349 89.484 262.300 88.534 L 262.250 87.583 261.300 87.534 L 260.349 87.484 260.300 86.534 L 260.250 85.583 258.300 85.536 L 256.350 85.490 256.300 84.536 L 256.250 83.583 255.300 83.534 L 254.349 83.484 254.300 82.534 L 254.250 81.583 253.300 81.534 L 252.349 81.484 252.300 80.534 L 252.250 79.583 250.208 79.537 L 248.167 79.490 248.167 78.495 L 248.167 77.500 247.167 77.500 L 246.167 77.500 246.167 76.500 L 246.167 75.500 244.167 75.500 L 242.167 75.500 242.167 74.500 L 242.167 73.500 241.175 73.500 L 240.183 73.500 240.133 72.542 L 240.083 71.583 239.125 71.533 L 238.167 71.483 238.167 70.492 L 238.167 69.500 236.167 69.500 L 234.167 69.500 234.167 68.500 L 234.167 67.500 233.167 67.500 L 232.167 67.500 232.167 66.500 L 232.167 65.500 231.167 65.500 L 230.167 65.500 230.167 64.500 L 230.167 63.500 228.167 63.500 L 226.167 63.500 226.167 62.500 L 226.167 61.500 225.175 61.500 L 224.183 61.500 224.133 60.458 L 224.083 59.417 223.133 59.367 L 222.183 59.317 222.133 58.367 L 222.083 57.417 220.133 57.370 L 218.183 57.323 218.133 56.370 L 218.083 55.417 217.042 55.367 L 216.000 55.317 216.000 54.325 L 216.000 53.333 215.000 53.333 L 214.000 53.333 214.000 52.333 L 214.000 51.333 212.000 51.333 L 210.000 51.333 210.000 50.333 L 210.000 49.333 209.008 49.333 L 208.017 49.333 207.967 48.375 L 207.917 47.417 206.966 47.367 L 206.016 47.317 205.966 46.367 L 205.917 45.417 203.966 45.370 L 202.016 45.323 201.966 44.370 L 201.917 43.417 200.966 43.367 L 200.016 43.317 199.966 42.367 L 199.917 41.417 197.966 41.370 L 196.016 41.323 195.966 40.370 L 195.917 39.417 194.966 39.367 L 194.016 39.317 193.966 38.367 L 193.917 37.417 192.917 37.320 C 192.367 37.266,238.735 37.210,295.958 37.195 L 400.000 37.167 400.000 18.583 L 400.000 0.000 200.000 0.000 L 0.000 0.000 0.000 3.500 " stroke="none" fill="#b8a939" fill-rule="evenodd"></path></g></svg>