<svg id="svg" xmlns="http://www.w3.org/2000/svg" xmlns:xlink="http://www.w3.org/1999/xlink" width="400" height="104.52261306532662" viewBox="0, 0, 400,104.52261306532662" version="1.1"><g id="svgg"><path id="path0" d="M129.833 0.583 L 129.833 1.167 128.833 1.167 L 127.833 1.167 127.833 5.083 L 127.833 9.000 128.833 9.000 L 129.833 9.000 129.833 10.000 L 129.833 11.000 130.833 11.000 L 131.833 11.000 131.833 12.000 L 131.833 13.000 133.833 13.000 L 135.833 13.000 135.833 14.000 L 135.833 15.000 136.833 15.000 L 137.833 15.000 137.833 16.000 L 137.833 17.000 138.825 17.000 L 139.817 17.000 139.867 18.042 L 139.917 19.083 141.867 19.130 L 143.817 19.177 143.867 20.130 L 143.917 21.083 144.867 21.133 L 145.817 21.183 145.867 22.133 L 145.917 23.083 146.867 23.133 L 147.817 23.183 147.867 24.133 L 147.917 25.083 149.867 25.130 L 151.817 25.177 151.867 26.130 L 151.917 27.083 152.867 27.133 L 153.817 27.183 153.867 28.133 L 153.917 29.083 155.867 29.130 L 157.817 29.177 157.867 30.130 L 157.917 31.083 158.958 31.133 L 160.000 31.183 160.000 32.175 L 160.000 33.167 161.000 33.167 L 162.000 33.167 162.000 34.167 L 162.000 35.167 164.000 35.167 L 166.000 35.167 166.000 36.167 L 166.000 37.167 166.992 37.167 L 167.983 37.167 168.033 38.125 L 168.083 39.083 169.034 39.133 L 169.984 39.183 170.034 40.133 L 170.083 41.083 172.034 41.130 L 173.984 41.177 174.034 42.130 L 174.083 43.083 175.042 43.133 L 176.000 43.183 176.000 44.175 L 176.000 45.167 177.000 45.167 L 178.000 45.167 178.000 46.167 L 178.000 47.167 180.000 47.167 L 182.000 47.167 182.000 48.167 L 182.000 49.167 183.000 49.167 L 184.000 49.167 184.000 50.167 L 184.000 51.167 184.992 51.167 L 185.984 51.167 186.034 52.208 L 186.083 53.250 188.034 53.297 L 189.984 53.344 190.034 54.297 L 190.083 55.250 191.125 55.300 L 192.167 55.349 192.167 56.341 L 192.167 57.333 193.167 57.333 L 194.167 57.333 194.167 58.333 L 194.167 59.333 196.167 59.333 L 198.167 59.333 198.167 60.333 L 198.167 61.333 199.158 61.333 L 200.150 61.333 200.200 62.292 L 200.250 63.250 202.200 63.297 L 204.150 63.344 204.200 64.297 L 204.250 65.250 205.200 65.300 L 206.151 65.349 206.200 66.300 L 206.250 67.250 207.250 67.347 C 207.800 67.400,161.394 67.457,104.125 67.472 L 0.000 67.500 0.000 86.000 L 0.000 104.500 200.000 104.500 L 400.000 104.500 400.000 101.083 L 400.000 97.667 399.508 97.667 C 399.021 97.667,399.015 97.656,398.966 96.625 L 398.917 95.583 396.966 95.536 L 395.016 95.490 394.966 94.536 L 394.917 93.583 391.967 93.538 L 389.016 93.492 388.967 92.538 L 388.917 91.583 385.875 91.538 L 382.833 91.492 382.833 90.496 L 382.833 89.500 380.833 89.500 L 378.833 89.500 378.833 88.500 L 378.833 87.500 375.842 87.500 L 372.850 87.500 372.800 86.542 L 372.750 85.583 369.800 85.538 L 366.850 85.492 366.800 84.538 L 366.750 83.583 364.800 83.536 L 362.850 83.490 362.800 82.536 L 362.750 81.583 359.800 81.538 L 356.850 81.492 356.800 80.538 L 356.750 79.583 353.800 79.538 L 350.850 79.492 350.800 78.538 L 350.750 77.583 348.708 77.537 L 346.667 77.490 346.667 76.495 L 346.667 75.500 343.675 75.500 L 340.683 75.500 340.633 74.542 L 340.583 73.583 337.633 73.538 L 334.683 73.492 334.633 72.538 L 334.583 71.583 332.625 71.536 L 330.667 71.489 330.667 70.495 L 330.667 69.500 327.667 69.500 L 324.667 69.500 324.667 68.500 L 324.667 67.500 321.667 67.500 L 318.667 67.500 318.667 66.500 L 318.667 65.500 316.583 65.500 L 314.500 65.500 314.500 64.500 L 314.500 63.500 311.500 63.500 L 308.500 63.500 308.500 62.500 L 308.500 61.500 305.508 61.500 L 302.516 61.500 302.466 60.458 L 302.417 59.417 300.466 59.370 L 298.516 59.323 298.466 58.370 L 298.417 57.417 295.467 57.371 L 292.516 57.326 292.467 56.371 L 292.417 55.417 289.467 55.371 L 286.516 55.326 286.467 54.371 L 286.417 53.417 284.375 53.370 L 282.333 53.323 282.333 52.328 L 282.333 51.333 279.333 51.333 L 276.333 51.333 276.333 50.333 L 276.333 49.333 273.342 49.333 L 270.350 49.333 270.300 48.375 L 270.250 47.417 268.300 47.370 L 266.350 47.323 266.300 46.370 L 266.250 45.417 263.300 45.371 L 260.350 45.326 260.300 44.371 L 260.250 43.417 257.300 43.371 L 254.350 43.326 254.300 42.371 L 254.250 41.417 252.300 41.370 L 250.350 41.323 250.300 40.370 L 250.250 39.417 247.208 39.371 L 244.167 39.326 244.167 38.330 L 244.167 37.333 241.175 37.333 L 238.183 37.333 238.133 36.375 L 238.083 35.417 236.125 35.370 L 234.167 35.323 234.167 34.328 L 234.167 33.333 231.167 33.333 L 228.167 33.333 228.167 32.333 L 228.167 31.333 225.167 31.333 L 222.167 31.333 222.167 30.333 L 222.167 29.333 220.167 29.333 L 218.167 29.333 218.167 28.333 L 218.167 27.333 215.083 27.333 L 212.000 27.333 212.000 26.250 L 212.000 25.167 209.008 25.167 L 206.017 25.167 205.967 24.208 L 205.917 23.250 203.966 23.203 L 202.016 23.156 201.966 22.203 L 201.917 21.250 198.967 21.205 L 196.016 21.159 195.967 20.205 L 195.917 19.250 192.967 19.205 L 190.016 19.159 189.967 18.205 L 189.917 17.250 187.966 17.203 L 186.016 17.156 185.966 16.203 L 185.917 15.250 182.875 15.205 L 179.833 15.159 179.833 14.163 L 179.833 13.167 176.842 13.167 L 173.850 13.167 173.800 12.208 L 173.750 11.250 171.800 11.203 L 169.850 11.156 169.800 10.203 L 169.750 9.250 166.800 9.205 L 163.850 9.159 163.800 8.205 L 163.750 7.250 160.800 7.205 L 157.850 7.159 157.800 6.205 L 157.750 5.250 155.800 5.203 L 153.850 5.156 153.800 4.203 L 153.750 3.250 150.708 3.205 L 147.667 3.159 147.667 2.163 L 147.667 1.167 144.667 1.167 L 141.667 1.167 141.667 0.583 L 141.667 0.000 135.750 0.000 L 129.833 0.000 129.833 0.583 " stroke="none" fill="#b8a939" fill-rule="evenodd"></path><path id="path1" d="M129.833 0.583 L 129.833 1.167 128.833 1.167 L 127.833 1.167 127.833 5.083 L 127.833 9.000 128.833 9.000 L 129.833 9.000 129.833 10.000 L 129.833 11.000 130.833 11.000 L 131.833 11.000 131.833 12.000 L 131.833 13.000 133.833 13.000 L 135.833 13.000 135.833 14.000 L 135.833 15.000 136.833 15.000 L 137.833 15.000 137.833 16.000 L 137.833 17.000 138.825 17.000 L 139.817 17.000 139.867 18.042 L 139.917 19.083 141.867 19.130 L 143.817 19.177 143.867 20.130 L 143.917 21.083 144.867 21.133 L 145.817 21.183 145.867 22.133 L 145.917 23.083 146.867 23.133 L 147.817 23.183 147.867 24.133 L 147.917 25.083 149.867 25.130 L 151.817 25.177 151.867 26.130 L 151.917 27.083 152.867 27.133 L 153.817 27.183 153.867 28.133 L 153.917 29.083 155.867 29.130 L 157.817 29.177 157.867 30.130 L 157.917 31.083 158.958 31.133 L 160.000 31.183 160.000 32.175 L 160.000 33.167 161.000 33.167 L 162.000 33.167 162.000 34.167 L 162.000 35.167 164.000 35.167 L 166.000 35.167 166.000 36.167 L 166.000 37.167 166.992 37.167 L 167.983 37.167 168.033 38.125 L 168.083 39.083 169.034 39.133 L 169.984 39.183 170.034 40.133 L 170.083 41.083 172.034 41.130 L 173.984 41.177 174.034 42.130 L 174.083 43.083 175.042 43.133 L 176.000 43.183 176.000 44.175 L 176.000 45.167 177.000 45.167 L 178.000 45.167 178.000 46.167 L 178.000 47.167 180.000 47.167 L 182.000 47.167 182.000 48.167 L 182.000 49.167 183.000 49.167 L 184.000 49.167 184.000 50.167 L 184.000 51.167 184.992 51.167 L 185.984 51.167 186.034 52.208 L 186.083 53.250 188.034 53.297 L 189.984 53.344 190.034 54.297 L 190.083 55.250 191.125 55.300 L 192.167 55.349 192.167 56.341 L 192.167 57.333 193.167 57.333 L 194.167 57.333 194.167 58.333 L 194.167 59.333 196.167 59.333 L 198.167 59.333 198.167 60.333 L 198.167 61.333 199.158 61.333 L 200.150 61.333 200.200 62.292 L 200.250 63.250 202.200 63.297 L 204.150 63.344 204.200 64.297 L 204.250 65.250 205.200 65.300 L 206.151 65.349 206.200 66.300 L 206.250 67.250 207.250 67.347 C 207.800 67.400,161.394 67.457,104.125 67.472 L 0.000 67.500 0.000 86.000 L 0.000 104.500 200.000 104.500 L 400.000 104.500 400.000 101.083 L 400.000 97.667 399.508 97.667 C 399.021 97.667,399.015 97.656,398.966 96.625 L 398.917 95.583 396.966 95.536 L 395.016 95.490 394.966 94.536 L 394.917 93.583 391.967 93.538 L 389.016 93.492 388.967 92.538 L 388.917 91.583 385.875 91.538 L 382.833 91.492 382.833 90.496 L 382.833 89.500 380.833 89.500 L 378.833 89.500 378.833 88.500 L 378.833 87.500 375.842 87.500 L 372.850 87.500 372.800 86.542 L 372.750 85.583 369.800 85.538 L 366.850 85.492 366.800 84.538 L 366.750 83.583 364.800 83.536 L 362.850 83.490 362.800 82.536 L 362.750 81.583 359.800 81.538 L 356.850 81.492 356.800 80.538 L 356.750 79.583 353.800 79.538 L 350.850 79.492 350.800 78.538 L 350.750 77.583 348.708 77.537 L 346.667 77.490 346.667 76.495 L 346.667 75.500 343.675 75.500 L 340.683 75.500 340.633 74.542 L 340.583 73.583 337.633 73.538 L 334.683 73.492 334.633 72.538 L 334.583 71.583 332.625 71.536 L 330.667 71.489 330.667 70.495 L 330.667 69.500 327.667 69.500 L 324.667 69.500 324.667 68.500 L 324.667 67.500 321.667 67.500 L 318.667 67.500 318.667 66.500 L 318.667 65.500 316.583 65.500 L 314.500 65.500 314.500 64.500 L 314.500 63.500 311.500 63.500 L 308.500 63.500 308.500 62.500 L 308.500 61.500 305.508 61.500 L 302.516 61.500 302.466 60.458 L 302.417 59.417 300.466 59.370 L 298.516 59.323 298.466 58.370 L 298.417 57.417 295.467 57.371 L 292.516 57.326 292.467 56.371 L 292.417 55.417 289.467 55.371 L 286.516 55.326 286.467 54.371 L 286.417 53.417 284.375 53.370 L 282.333 53.323 282.333 52.328 L 282.333 51.333 279.333 51.333 L 276.333 51.333 276.333 50.333 L 276.333 49.333 273.342 49.333 L 270.350 49.333 270.300 48.375 L 270.250 47.417 268.300 47.370 L 266.350 47.323 266.300 46.370 L 266.250 45.417 263.300 45.371 L 260.350 45.326 260.300 44.371 L 260.250 43.417 257.300 43.371 L 254.350 43.326 254.300 42.371 L 254.250 41.417 252.300 41.370 L 250.350 41.323 250.300 40.370 L 250.250 39.417 247.208 39.371 L 244.167 39.326 244.167 38.330 L 244.167 37.333 241.175 37.333 L 238.183 37.333 238.133 36.375 L 238.083 35.417 236.125 35.370 L 234.167 35.323 234.167 34.328 L 234.167 33.333 231.167 33.333 L 228.167 33.333 228.167 32.333 L 228.167 31.333 225.167 31.333 L 222.167 31.333 222.167 30.333 L 222.167 29.333 220.167 29.333 L 218.167 29.333 218.167 28.333 L 218.167 27.333 215.083 27.333 L 212.000 27.333 212.000 26.250 L 212.000 25.167 209.008 25.167 L 206.017 25.167 205.967 24.208 L 205.917 23.250 203.966 23.203 L 202.016 23.156 201.966 22.203 L 201.917 21.250 198.967 21.205 L 196.016 21.159 195.967 20.205 L 195.917 19.250 192.967 19.205 L 190.016 19.159 189.967 18.205 L 189.917 17.250 187.966 17.203 L 186.016 17.156 185.966 16.203 L 185.917 15.250 182.875 15.205 L 179.833 15.159 179.833 14.163 L 179.833 13.167 176.842 13.167 L 173.850 13.167 173.800 12.208 L 173.750 11.250 171.800 11.203 L 169.850 11.156 169.800 10.203 L 169.750 9.250 166.800 9.205 L 163.850 9.159 163.800 8.205 L 163.750 7.250 160.800 7.205 L 157.850 7.159 157.800 6.205 L 157.750 5.250 155.800 5.203 L 153.850 5.156 153.800 4.203 L 153.750 3.250 150.708 3.205 L 147.667 3.159 147.667 2.163 L 147.667 1.167 144.667 1.167 L 141.667 1.167 141.667 0.583 L 141.667 0.000 135.750 0.000 L 129.833 0.000 129.833 0.583 " stroke="none" fill="#b8a939" fill-rule="evenodd"></path><path id="path2" d="M129.833 0.583 L 129.833 1.167 128.833 1.167 L 127.833 1.167 127.833 5.083 L 127.833 9.000 128.833 9.000 L 129.833 9.000 129.833 10.000 L 129.833 11.000 130.833 11.000 L 131.833 11.000 131.833 12.000 L 131.833 13.000 133.833 13.000 L 135.833 13.000 135.833 14.000 L 135.833 15.000 136.833 15.000 L 137.833 15.000 137.833 16.000 L 137.833 17.000 138.825 17.000 L 139.817 17.000 139.867 18.042 L 139.917 19.083 141.867 19.130 L 143.817 19.177 143.867 20.130 L 143.917 21.083 144.867 21.133 L 145.817 21.183 145.867 22.133 L 145.917 23.083 146.867 23.133 L 147.817 23.183 147.867 24.133 L 147.917 25.083 149.867 25.130 L 151.817 25.177 151.867 26.130 L 151.917 27.083 152.867 27.133 L 153.817 27.183 153.867 28.133 L 153.917 29.083 155.867 29.130 L 157.817 29.177 157.867 30.130 L 157.917 31.083 158.958 31.133 L 160.000 31.183 160.000 32.175 L 160.000 33.167 161.000 33.167 L 162.000 33.167 162.000 34.167 L 162.000 35.167 164.000 35.167 L 166.000 35.167 166.000 36.167 L 166.000 37.167 166.992 37.167 L 167.983 37.167 168.033 38.125 L 168.083 39.083 169.034 39.133 L 169.984 39.183 170.034 40.133 L 170.083 41.083 172.034 41.130 L 173.984 41.177 174.034 42.130 L 174.083 43.083 175.042 43.133 L 176.000 43.183 176.000 44.175 L 176.000 45.167 177.000 45.167 L 178.000 45.167 178.000 46.167 L 178.000 47.167 180.000 47.167 L 182.000 47.167 182.000 48.167 L 182.000 49.167 183.000 49.167 L 184.000 49.167 184.000 50.167 L 184.000 51.167 184.992 51.167 L 185.984 51.167 186.034 52.208 L 186.083 53.250 188.034 53.297 L 189.984 53.344 190.034 54.297 L 190.083 55.250 191.125 55.300 L 192.167 55.349 192.167 56.341 L 192.167 57.333 193.167 57.333 L 194.167 57.333 194.167 58.333 L 194.167 59.333 196.167 59.333 L 198.167 59.333 198.167 60.333 L 198.167 61.333 199.158 61.333 L 200.150 61.333 200.200 62.292 L 200.250 63.250 202.200 63.297 L 204.150 63.344 204.200 64.297 L 204.250 65.250 205.200 65.300 L 206.151 65.349 206.200 66.300 L 206.250 67.250 207.250 67.347 C 207.800 67.400,161.394 67.457,104.125 67.472 L 0.000 67.500 0.000 86.000 L 0.000 104.500 200.000 104.500 L 400.000 104.500 400.000 101.083 L 400.000 97.667 399.508 97.667 C 399.021 97.667,399.015 97.656,398.966 96.625 L 398.917 95.583 396.966 95.536 L 395.016 95.490 394.966 94.536 L 394.917 93.583 391.967 93.538 L 389.016 93.492 388.967 92.538 L 388.917 91.583 385.875 91.538 L 382.833 91.492 382.833 90.496 L 382.833 89.500 380.833 89.500 L 378.833 89.500 378.833 88.500 L 378.833 87.500 375.842 87.500 L 372.850 87.500 372.800 86.542 L 372.750 85.583 369.800 85.538 L 366.850 85.492 366.800 84.538 L 366.750 83.583 364.800 83.536 L 362.850 83.490 362.800 82.536 L 362.750 81.583 359.800 81.538 L 356.850 81.492 356.800 80.538 L 356.750 79.583 353.800 79.538 L 350.850 79.492 350.800 78.538 L 350.750 77.583 348.708 77.537 L 346.667 77.490 346.667 76.495 L 346.667 75.500 343.675 75.500 L 340.683 75.500 340.633 74.542 L 340.583 73.583 337.633 73.538 L 334.683 73.492 334.633 72.538 L 334.583 71.583 332.625 71.536 L 330.667 71.489 330.667 70.495 L 330.667 69.500 327.667 69.500 L 324.667 69.500 324.667 68.500 L 324.667 67.500 321.667 67.500 L 318.667 67.500 318.667 66.500 L 318.667 65.500 316.583 65.500 L 314.500 65.500 314.500 64.500 L 314.500 63.500 311.500 63.500 L 308.500 63.500 308.500 62.500 L 308.500 61.500 305.508 61.500 L 302.516 61.500 302.466 60.458 L 302.417 59.417 300.466 59.370 L 298.516 59.323 298.466 58.370 L 298.417 57.417 295.467 57.371 L 292.516 57.326 292.467 56.371 L 292.417 55.417 289.467 55.371 L 286.516 55.326 286.467 54.371 L 286.417 53.417 284.375 53.370 L 282.333 53.323 282.333 52.328 L 282.333 51.333 279.333 51.333 L 276.333 51.333 276.333 50.333 L 276.333 49.333 273.342 49.333 L 270.350 49.333 270.300 48.375 L 270.250 47.417 268.300 47.370 L 266.350 47.323 266.300 46.370 L 266.250 45.417 263.300 45.371 L 260.350 45.326 260.300 44.371 L 260.250 43.417 257.300 43.371 L 254.350 43.326 254.300 42.371 L 254.250 41.417 252.300 41.370 L 250.350 41.323 250.300 40.370 L 250.250 39.417 247.208 39.371 L 244.167 39.326 244.167 38.330 L 244.167 37.333 241.175 37.333 L 238.183 37.333 238.133 36.375 L 238.083 35.417 236.125 35.370 L 234.167 35.323 234.167 34.328 L 234.167 33.333 231.167 33.333 L 228.167 33.333 228.167 32.333 L 228.167 31.333 225.167 31.333 L 222.167 31.333 222.167 30.333 L 222.167 29.333 220.167 29.333 L 218.167 29.333 218.167 28.333 L 218.167 27.333 215.083 27.333 L 212.000 27.333 212.000 26.250 L 212.000 25.167 209.008 25.167 L 206.017 25.167 205.967 24.208 L 205.917 23.250 203.966 23.203 L 202.016 23.156 201.966 22.203 L 201.917 21.250 198.967 21.205 L 196.016 21.159 195.967 20.205 L 195.917 19.250 192.967 19.205 L 190.016 19.159 189.967 18.205 L 189.917 17.250 187.966 17.203 L 186.016 17.156 185.966 16.203 L 185.917 15.250 182.875 15.205 L 179.833 15.159 179.833 14.163 L 179.833 13.167 176.842 13.167 L 173.850 13.167 173.800 12.208 L 173.750 11.250 171.800 11.203 L 169.850 11.156 169.800 10.203 L 169.750 9.250 166.800 9.205 L 163.850 9.159 163.800 8.205 L 163.750 7.250 160.800 7.205 L 157.850 7.159 157.800 6.205 L 157.750 5.250 155.800 5.203 L 153.850 5.156 153.800 4.203 L 153.750 3.250 150.708 3.205 L 147.667 3.159 147.667 2.163 L 147.667 1.167 144.667 1.167 L 141.667 1.167 141.667 0.583 L 141.667 0.000 135.750 0.000 L 129.833 0.000 129.833 0.583 " stroke="none" fill="#b8a939" fill-rule="evenodd"></path><path id="path3" d="M129.833 0.583 L 129.833 1.167 128.833 1.167 L 127.833 1.167 127.833 5.083 L 127.833 9.000 128.833 9.000 L 129.833 9.000 129.833 10.000 L 129.833 11.000 130.833 11.000 L 131.833 11.000 131.833 12.000 L 131.833 13.000 133.833 13.000 L 135.833 13.000 135.833 14.000 L 135.833 15.000 136.833 15.000 L 137.833 15.000 137.833 16.000 L 137.833 17.000 138.825 17.000 L 139.817 17.000 139.867 18.042 L 139.917 19.083 141.867 19.130 L 143.817 19.177 143.867 20.130 L 143.917 21.083 144.867 21.133 L 145.817 21.183 145.867 22.133 L 145.917 23.083 146.867 23.133 L 147.817 23.183 147.867 24.133 L 147.917 25.083 149.867 25.130 L 151.817 25.177 151.867 26.130 L 151.917 27.083 152.867 27.133 L 153.817 27.183 153.867 28.133 L 153.917 29.083 155.867 29.130 L 157.817 29.177 157.867 30.130 L 157.917 31.083 158.958 31.133 L 160.000 31.183 160.000 32.175 L 160.000 33.167 161.000 33.167 L 162.000 33.167 162.000 34.167 L 162.000 35.167 164.000 35.167 L 166.000 35.167 166.000 36.167 L 166.000 37.167 166.992 37.167 L 167.983 37.167 168.033 38.125 L 168.083 39.083 169.034 39.133 L 169.984 39.183 170.034 40.133 L 170.083 41.083 172.034 41.130 L 173.984 41.177 174.034 42.130 L 174.083 43.083 175.042 43.133 L 176.000 43.183 176.000 44.175 L 176.000 45.167 177.000 45.167 L 178.000 45.167 178.000 46.167 L 178.000 47.167 180.000 47.167 L 182.000 47.167 182.000 48.167 L 182.000 49.167 183.000 49.167 L 184.000 49.167 184.000 50.167 L 184.000 51.167 184.992 51.167 L 185.984 51.167 186.034 52.208 L 186.083 53.250 188.034 53.297 L 189.984 53.344 190.034 54.297 L 190.083 55.250 191.125 55.300 L 192.167 55.349 192.167 56.341 L 192.167 57.333 193.167 57.333 L 194.167 57.333 194.167 58.333 L 194.167 59.333 196.167 59.333 L 198.167 59.333 198.167 60.333 L 198.167 61.333 199.158 61.333 L 200.150 61.333 200.200 62.292 L 200.250 63.250 202.200 63.297 L 204.150 63.344 204.200 64.297 L 204.250 65.250 205.200 65.300 L 206.151 65.349 206.200 66.300 L 206.250 67.250 207.250 67.347 C 207.800 67.400,161.394 67.457,104.125 67.472 L 0.000 67.500 0.000 86.000 L 0.000 104.500 200.000 104.500 L 400.000 104.500 400.000 101.083 L 400.000 97.667 399.508 97.667 C 399.021 97.667,399.015 97.656,398.966 96.625 L 398.917 95.583 396.966 95.536 L 395.016 95.490 394.966 94.536 L 394.917 93.583 391.967 93.538 L 389.016 93.492 388.967 92.538 L 388.917 91.583 385.875 91.538 L 382.833 91.492 382.833 90.496 L 382.833 89.500 380.833 89.500 L 378.833 89.500 378.833 88.500 L 378.833 87.500 375.842 87.500 L 372.850 87.500 372.800 86.542 L 372.750 85.583 369.800 85.538 L 366.850 85.492 366.800 84.538 L 366.750 83.583 364.800 83.536 L 362.850 83.490 362.800 82.536 L 362.750 81.583 359.800 81.538 L 356.850 81.492 356.800 80.538 L 356.750 79.583 353.800 79.538 L 350.850 79.492 350.800 78.538 L 350.750 77.583 348.708 77.537 L 346.667 77.490 346.667 76.495 L 346.667 75.500 343.675 75.500 L 340.683 75.500 340.633 74.542 L 340.583 73.583 337.633 73.538 L 334.683 73.492 334.633 72.538 L 334.583 71.583 332.625 71.536 L 330.667 71.489 330.667 70.495 L 330.667 69.500 327.667 69.500 L 324.667 69.500 324.667 68.500 L 324.667 67.500 321.667 67.500 L 318.667 67.500 318.667 66.500 L 318.667 65.500 316.583 65.500 L 314.500 65.500 314.500 64.500 L 314.500 63.500 311.500 63.500 L 308.500 63.500 308.500 62.500 L 308.500 61.500 305.508 61.500 L 302.516 61.500 302.466 60.458 L 302.417 59.417 300.466 59.370 L 298.516 59.323 298.466 58.370 L 298.417 57.417 295.467 57.371 L 292.516 57.326 292.467 56.371 L 292.417 55.417 289.467 55.371 L 286.516 55.326 286.467 54.371 L 286.417 53.417 284.375 53.370 L 282.333 53.323 282.333 52.328 L 282.333 51.333 279.333 51.333 L 276.333 51.333 276.333 50.333 L 276.333 49.333 273.342 49.333 L 270.350 49.333 270.300 48.375 L 270.250 47.417 268.300 47.370 L 266.350 47.323 266.300 46.370 L 266.250 45.417 263.300 45.371 L 260.350 45.326 260.300 44.371 L 260.250 43.417 257.300 43.371 L 254.350 43.326 254.300 42.371 L 254.250 41.417 252.300 41.370 L 250.350 41.323 250.300 40.370 L 250.250 39.417 247.208 39.371 L 244.167 39.326 244.167 38.330 L 244.167 37.333 241.175 37.333 L 238.183 37.333 238.133 36.375 L 238.083 35.417 236.125 35.370 L 234.167 35.323 234.167 34.328 L 234.167 33.333 231.167 33.333 L 228.167 33.333 228.167 32.333 L 228.167 31.333 225.167 31.333 L 222.167 31.333 222.167 30.333 L 222.167 29.333 220.167 29.333 L 218.167 29.333 218.167 28.333 L 218.167 27.333 215.083 27.333 L 212.000 27.333 212.000 26.250 L 212.000 25.167 209.008 25.167 L 206.017 25.167 205.967 24.208 L 205.917 23.250 203.966 23.203 L 202.016 23.156 201.966 22.203 L 201.917 21.250 198.967 21.205 L 196.016 21.159 195.967 20.205 L 195.917 19.250 192.967 19.205 L 190.016 19.159 189.967 18.205 L 189.917 17.250 187.966 17.203 L 186.016 17.156 185.966 16.203 L 185.917 15.250 182.875 15.205 L 179.833 15.159 179.833 14.163 L 179.833 13.167 176.842 13.167 L 173.850 13.167 173.800 12.208 L 173.750 11.250 171.800 11.203 L 169.850 11.156 169.800 10.203 L 169.750 9.250 166.800 9.205 L 163.850 9.159 163.800 8.205 L 163.750 7.250 160.800 7.205 L 157.850 7.159 157.800 6.205 L 157.750 5.250 155.800 5.203 L 153.850 5.156 153.800 4.203 L 153.750 3.250 150.708 3.205 L 147.667 3.159 147.667 2.163 L 147.667 1.167 144.667 1.167 L 141.667 1.167 141.667 0.583 L 141.667 0.000 135.750 0.000 L 129.833 0.000 129.833 0.583 " stroke="none" fill="#b8a939" fill-rule="evenodd"></path></g></svg>